# xmcd
#
# Track frame offsets:
# 150
# 13720
# 30824
# 46996
# 61957
# 74976
# 91869
# 108999
# 123020
# 136178
#
# Disc length: 2127 seconds
#
#
# Revision: 0
# Processed by: cddbd v1.5.1PL2 Copyright (c) Steve Scherf et al.
# Submitted via: FreeRIP 2.943 
#
DISCID=7b084d0a
DTITLE=Rick Trevino - In My Dreams
DYEAR=1900
DGENRE=
TTITLE0=Overnight Succes
TTITLE1=In My Dreams
TTITLE2=She'll Never Know
TTITLE3=Down Side Of Love
TTITLE4=Beautiful Day
TTITLE5=Olivia
TTITLE6=Are We Almost Tgere
TTITLE7=Heartaches
TTITLE8=So Over
TTITLE9=Have You Ever Really Loved A Woman
EXTD=
EXTT0=
EXTT1=
EXTT2=
EXTT3=
EXTT4=
EXTT5=
EXTT6=
EXTT7=
EXTT8=
EXTT9=
PLAYORDER=
